<svg xmlns="http://www.w3.org/2000/svg" viewBox="0 0 453.781 459.202" width="453.781" height="459.202">
  <g transform="translate(-437.927 262.114)">
    <g transform="translate(817.062 -220.42) rotate(61)" fill="#fff">
      <path d="M 74.63778686523438 203.3638305664062 C 58.06401062011719 187.8189239501953 8.500007629394531 137.1461181640625 8.500007629394531 87.18943786621094 C 8.500007629394531 34.9749755859375 30.693115234375 8.500012397766113 74.46282958984375 8.500012397766113 C 106.85546875 8.500012397766113 145.4688720703125 22.08101272583008 145.4688720703125 86.78086853027344 C 145.4688720703125 136.9004211425781 92.13020324707031 187.9672698974609 74.63778686523438 203.3638305664062 Z" stroke="none"></path>
      <path d="M 74.46284484863281 16.99998474121094 C 49.79493713378906 16.99998474121094 16.99998474121094 24.27598571777344 16.99998474121094 87.18944549560547 C 16.99998474121094 129.2390289306641 55.65430450439453 172.7570495605469 74.87470245361328 191.7944488525391 C 98.80458831787109 169.5699005126953 136.9688568115234 125.8678817749023 136.9688873291016 86.78089904785156 C 136.9688873291016 40.47767639160156 115.9387969970703 16.99998474121094 74.46284484863281 16.99998474121094 M 74.46284484863281 -1.52587890625e-05 C 116.6645736694336 -1.52587890625e-05 153.9688873291016 22.3529052734375 153.9688873291016 86.78089904785156 C 153.9688415527344 151.2088012695312 74.46279907226562 214.6695404052734 74.46279907226562 214.6695404052734 C 74.46279907226562 214.6695404052734 -1.52587890625e-05 151.6176300048828 -1.52587890625e-05 87.18944549560547 C -1.52587890625e-05 22.76148986816406 32.26107025146484 -1.52587890625e-05 74.46284484863281 -1.52587890625e-05 Z" stroke="none" fill="#000"></path>
    </g>
    <g transform="translate(643.759 -262.114) rotate(16)" fill="#fff">
      <path d="M 74.63779449462891 203.3638153076172 C 58.06401443481445 187.8189086914062 8.500007629394531 137.1460876464844 8.500007629394531 87.18940734863281 C 8.500007629394531 34.97494125366211 30.693115234375 8.500012397766113 74.46282958984375 8.500012397766113 C 106.85546875 8.500012397766113 145.4688720703125 22.08101272583008 145.4688720703125 86.78086853027344 C 145.4688720703125 136.9004211425781 92.13020324707031 187.9672698974609 74.63779449462891 203.3638153076172 Z" stroke="none"></path>
      <path d="M 74.46279907226562 16.99998474121094 C 49.79489135742188 16.99998474121094 16.99998474121094 24.27598571777344 16.99998474121094 87.18939971923828 C 16.99998474121094 129.2389831542969 55.65432739257812 172.7570343017578 74.87472534179688 191.7944488525391 C 98.80464172363281 169.5698852539062 136.9688873291016 125.8678741455078 136.9688873291016 86.78085327148438 C 136.9688873291016 40.47767639160156 115.9387969970703 16.99998474121094 74.46279907226562 16.99998474121094 M 74.46279907226562 -1.52587890625e-05 C 116.6645736694336 -1.52587890625e-05 153.9688873291016 22.3529052734375 153.9688873291016 86.78085327148438 C 153.9688873291016 151.2088012695312 74.46279907226562 214.6695404052734 74.46279907226562 214.6695404052734 C 74.46279907226562 214.6695404052734 -1.52587890625e-05 151.6175842285156 -1.52587890625e-05 87.18939971923828 C -1.52587890625e-05 22.76148986816406 32.26107025146484 -1.52587890625e-05 74.46279907226562 -1.52587890625e-05 Z" stroke="none" fill="#000"></path>
    </g>
    <g transform="matrix(0.891, 0.454, -0.454, 0.891, 31.882, -242.048)">
      <g transform="translate(448.726 -138)" fill="#fef9c3">
        <path d="M 154.1538696289062 178.9705352783203 C 124.8343887329102 178.9705352783203 104.12060546875 171.737060546875 90.82891845703125 156.8567962646484 C 81.06818389892578 145.9310150146484 71.36970520019531 133.7221221923828 69.34660339355469 115.2893753051758 C 68.20018005371094 92.8643798828125 73.84165191650391 75.44843292236328 87.67802429199219 59.30753707885742 C 116.170654296875 26.0689582824707 180.3545989990234 8.50001049041748 273.2911682128906 8.50001049041748 C 330.8104553222656 8.50001049041748 371.7236938476562 35.42132568359375 394.8943786621094 88.51605987548828 C 406.7243957519531 115.6241226196289 410.8106689453125 143.1061706542969 412.2208251953125 158.5613708496094 C 399.4895629882812 154.5947570800781 377.5006408691406 149.7528991699219 346.0186462402344 149.7528991699219 C 313.1506652832031 149.7528991699219 277.1029052734375 155.0054779052734 238.876708984375 165.3647003173828 C 205.5622406005859 174.3928985595703 177.0573425292969 178.9705352783203 154.1538696289062 178.9705352783203 Z" stroke="none"></path>
        <path d="M 273.2911987304688 17.00003051757812 C 184.2032165527344 17.00003051757812 120.576416015625 33.98971557617188 94.1314697265625 64.83952331542969 C 81.823974609375 79.1968994140625 76.81015014648438 94.77120971679688 77.7957763671875 114.3619003295898 C 79.54495239257812 130.298095703125 88.32464599609375 141.2952728271484 97.16815185546875 151.1942749023438 C 108.7543334960938 164.1652069091797 127.39453125 170.4705200195312 154.1537780761719 170.4705200195312 C 176.3065795898438 170.4705200195312 204.0634765625 165.9924011230469 236.6534576416016 157.1605834960938 C 275.6041564941406 146.6050262451172 312.3999633789062 141.2528991699219 346.0186462402344 141.2528991699219 C 370.16015625 141.2528991699219 388.9169006347656 143.9811096191406 402.4895935058594 147.1091156005859 C 396.4638061523438 103.6222381591797 372.059814453125 17.00003051757812 273.2911987304688 17.00003051757812 M 273.2911987304688 3.0517578125e-05 C 421.3179626464844 3.0517578125e-05 421.4623413085938 171.1614685058594 421.4623413085938 171.1614685058594 C 421.4623413085938 171.1614685058594 362.8552551269531 140.5733337402344 241.1000213623047 173.5687713623047 C 153.8014831542969 197.2265472412109 107.9651489257812 188.8005065917969 84.48965454101562 162.5192718505859 C 75.50997924804688 152.4678344726562 63.29751586914062 138.084716796875 60.89727783203125 116.2167129516602 C 59.69027709960938 92.89440155029297 65.0113525390625 72.68914794921875 81.22457885742188 53.77546691894531 C 111.1065368652344 18.91621398925781 177.0738525390625 3.0517578125e-05 273.2911987304688 3.0517578125e-05 Z" stroke="none" fill="#000"></path>
      </g>
    </g>
    <path d="M-13.961-7.373s27.934-5.671,59.014-10.147,65.207-5.926,65.207-5.926S134,19.229,140.269,57.378s-7.26,74.4-7.26,74.4L84.595,138.79,39.24,154.168s10.115-57.6-3.185-97.982S-13.961-7.373-13.961-7.373Z" transform="matrix(0.891, 0.454, -0.454, 0.891, 627.205, -64.417)"></path>
    <circle cx="15.5" cy="15.5" r="15.5" transform="matrix(0.891, 0.454, -0.454, 0.891, 544.105, -41.192)"></circle>
    <path d="M0,0S19.857,7.366,32.016,21.869,48.634,58.013,48.634,58.013" transform="translate(451.44 -129) rotate(-16)" fill="none" stroke="#000" stroke-linecap="round" stroke-width="17"></path>
    <path d="M0,0S25.723,10.285,41.473,30.535,63,81,63,81" transform="translate(477.827 -170.575) rotate(2)" fill="none" stroke="#000" stroke-linecap="round" stroke-width="17"></path>
    <path d="M29.5,0,59,61s14.942,47.466-14.561-10.973c-3.823-2.253-13.254-13.871-18.2-13.715C6.913,36.92-18.3,63.431-18.3,63.431Z" transform="matrix(-0.799, 0.602, -0.602, -0.799, 822.669, 144.612)"></path>
  </g>
</svg>
