<svg xmlns="http://www.w3.org/2000/svg" xmlns:xlink="http://www.w3.org/1999/xlink" zoomAndPan="magnify" viewBox="0 0 1125 374.999991" width="1125" height="374.999991" preserveAspectRatio="xMidYMid meet" version="1.0">
  <defs>
    <clipPath id="880c15f8d5">
      <path d="M 1052 337 L 1096 337 L 1096 374.992188 L 1052 374.992188 Z M 1052 337 " clip-rule="nonzero"></path>
    </clipPath>
    <clipPath id="a2efdd09c1">
      <path d="M 1081 287 L 1124.992188 287 L 1124.992188 325 L 1081 325 Z M 1081 287 " clip-rule="nonzero"></path>
    </clipPath>
    <clipPath id="1a27de39d4">
      <path d="M 1052.03125 201.742188 L 1095.128906 201.742188 L 1095.128906 238.980469 L 1052.03125 238.980469 Z M 1052.03125 201.742188 " clip-rule="nonzero"></path>
    </clipPath>
    <clipPath id="790dc7dcb4">
      <path d="M 933.792969 304.359375 L 976.851562 304.359375 L 976.851562 341.695312 L 933.792969 341.695312 Z M 933.792969 304.359375 " clip-rule="nonzero"></path>
    </clipPath>
    <clipPath id="495f1d93d4">
      <path d="M 29 136.160156 L 73 136.160156 L 73 174 L 29 174 Z M 29 136.160156 " clip-rule="nonzero"></path>
    </clipPath>
    <clipPath id="1bb5016baf">
      <path d="M 29.863281 272.167969 L 72.960938 272.167969 L 72.960938 309.410156 L 29.863281 309.410156 Z M 29.863281 272.167969 " clip-rule="nonzero"></path>
    </clipPath>
    <clipPath id="b815daf156">
      <path d="M 148.140625 169.453125 L 191.199219 169.453125 L 191.199219 206.789062 L 148.140625 206.789062 Z M 148.140625 169.453125 " clip-rule="nonzero"></path>
    </clipPath>
    <clipPath id="10af9044bb">
      <path d="M 59.710938 50 L 103 50 L 103 88 L 59.710938 88 Z M 59.710938 50 " clip-rule="nonzero"></path>
    </clipPath>
    <clipPath id="17f5d795a3">
      <path d="M 89.574219 136.011719 L 132.671875 136.011719 L 132.671875 173.25 L 89.574219 173.25 Z M 89.574219 136.011719 " clip-rule="nonzero"></path>
    </clipPath>
    <clipPath id="b12b037be1">
      <path d="M 207.855469 33.296875 L 250.910156 33.296875 L 250.910156 70.632812 L 207.855469 70.632812 Z M 207.855469 33.296875 " clip-rule="nonzero"></path>
    </clipPath>
  </defs>
  <path fill="#ffffff" d="M 1082.925781 272.851562 L 1065.140625 272.851562 L 1056.25 288.214844 L 1065.140625 303.578125 L 1082.925781 303.578125 L 1091.816406 288.214844 Z M 1063.269531 269.617188 L 1084.796875 269.617188 L 1095.558594 288.214844 L 1084.796875 306.808594 L 1063.269531 306.808594 L 1052.507812 288.214844 L 1063.269531 269.617188 " fill-opacity="1" fill-rule="nonzero"></path>
  <path fill="#ffffff" d="M 1082.480469 307.023438 L 1064.699219 307.023438 L 1055.804688 322.386719 L 1064.699219 337.75 L 1082.480469 337.75 L 1091.371094 322.386719 Z M 1062.828125 303.789062 L 1084.351562 303.789062 L 1095.113281 322.386719 L 1084.351562 340.980469 L 1062.828125 340.980469 L 1052.0625 322.386719 L 1062.828125 303.789062 " fill-opacity="1" fill-rule="nonzero"></path>
  <g clip-path="url(#880c15f8d5)">
    <path fill="#ffffff" d="M 1082.84375 341.03125 L 1065.058594 341.03125 L 1056.167969 356.394531 L 1065.058594 371.757812 L 1082.84375 371.757812 L 1091.734375 356.394531 Z M 1063.191406 337.800781 L 1084.714844 337.800781 L 1095.476562 356.394531 L 1084.714844 374.992188 L 1063.191406 374.992188 L 1052.425781 356.394531 L 1063.191406 337.800781 " fill-opacity="1" fill-rule="nonzero"></path>
  </g>
  <path fill="#ffffff" d="M 1082.679688 239.046875 L 1064.898438 239.046875 L 1056.007812 254.410156 L 1064.898438 269.773438 L 1082.679688 269.773438 L 1091.574219 254.410156 Z M 1063.027344 235.8125 L 1084.550781 235.8125 L 1095.316406 254.410156 L 1084.550781 273.003906 L 1063.027344 273.003906 L 1052.265625 254.410156 L 1063.027344 235.8125 " fill-opacity="1" fill-rule="nonzero"></path>
  <g clip-path="url(#a2efdd09c1)">
    <path fill="#ffffff" d="M 1112.308594 290.3125 L 1094.527344 290.3125 L 1085.632812 305.675781 L 1094.527344 321.039062 L 1112.308594 321.039062 L 1121.203125 305.675781 Z M 1092.65625 287.078125 L 1114.179688 287.078125 L 1124.941406 305.675781 L 1114.179688 324.269531 L 1092.65625 324.269531 L 1081.890625 305.675781 L 1092.65625 287.078125 " fill-opacity="1" fill-rule="nonzero"></path>
  </g>
  <path fill="#ffffff" d="M 1053.285156 256.023438 L 1035.5 256.023438 L 1026.609375 271.386719 L 1035.5 286.75 L 1053.285156 286.75 L 1062.175781 271.386719 Z M 1033.628906 252.792969 L 1055.15625 252.792969 L 1065.917969 271.386719 L 1055.15625 289.984375 L 1033.628906 289.984375 L 1022.867188 271.386719 L 1033.628906 252.792969 " fill-opacity="1" fill-rule="nonzero"></path>
  <path fill="#ffffff" d="M 1053.332031 290.199219 L 1035.546875 290.199219 L 1026.65625 305.558594 L 1035.546875 320.921875 L 1053.332031 320.921875 L 1062.222656 305.558594 Z M 1033.675781 286.964844 L 1055.199219 286.964844 L 1065.964844 305.558594 L 1055.199219 324.15625 L 1033.675781 324.15625 L 1022.914062 305.558594 L 1033.675781 286.964844 " fill-opacity="1" fill-rule="nonzero"></path>
  <path fill="#ffffff" d="M 1023.660156 273.117188 L 1005.878906 273.117188 L 996.984375 288.480469 L 1005.878906 303.84375 L 1023.660156 303.84375 L 1032.554688 288.480469 Z M 1004.007812 269.886719 L 1025.53125 269.886719 L 1036.296875 288.480469 L 1025.53125 307.078125 L 1004.007812 307.078125 L 993.242188 288.480469 L 1004.007812 269.886719 " fill-opacity="1" fill-rule="nonzero"></path>
  <path fill="#ffffff" d="M 1052.96875 221.953125 L 1035.1875 221.953125 L 1026.292969 237.316406 L 1035.1875 252.679688 L 1052.96875 252.679688 L 1061.859375 237.316406 Z M 1033.3125 218.71875 L 1054.839844 218.71875 L 1065.601562 237.316406 L 1054.839844 255.910156 L 1033.3125 255.910156 L 1022.550781 237.316406 L 1033.3125 218.71875 " fill-opacity="1" fill-rule="nonzero"></path>
  <g clip-path="url(#1a27de39d4)">
    <path fill="#ffffff" d="M 1082.480469 204.972656 L 1064.699219 204.972656 L 1055.804688 220.335938 L 1064.699219 235.699219 L 1082.480469 235.699219 L 1091.371094 220.335938 Z M 1062.828125 201.738281 L 1084.351562 201.738281 L 1095.113281 220.335938 L 1084.351562 238.929688 L 1062.828125 238.929688 L 1052.0625 220.335938 L 1062.828125 201.738281 " fill-opacity="1" fill-rule="nonzero"></path>
  </g>
  <path fill="#ffffff" d="M 1023.347656 239.046875 L 1005.5625 239.046875 L 996.671875 254.410156 L 1005.5625 269.773438 L 1023.347656 269.773438 L 1032.238281 254.410156 Z M 1003.691406 235.8125 L 1025.21875 235.8125 L 1035.980469 254.410156 L 1025.21875 273.003906 L 1003.691406 273.003906 L 992.929688 254.410156 L 1003.691406 235.8125 " fill-opacity="1" fill-rule="nonzero"></path>
  <path fill="#ffffff" d="M 994.066406 290.464844 L 976.285156 290.464844 L 967.390625 305.828125 L 976.285156 321.191406 L 994.066406 321.191406 L 1002.957031 305.828125 Z M 974.414062 287.234375 L 995.9375 287.234375 L 1006.699219 305.828125 L 995.9375 324.425781 L 974.414062 324.425781 L 963.648438 305.828125 L 974.414062 287.234375 " fill-opacity="1" fill-rule="nonzero"></path>
  <path fill="#ffffff" d="M 1053.128906 324.433594 L 1035.347656 324.433594 L 1026.457031 339.796875 L 1035.347656 355.15625 L 1053.128906 355.15625 L 1062.023438 339.796875 Z M 1033.476562 321.199219 L 1055 321.199219 L 1065.765625 339.796875 L 1055 358.390625 L 1033.476562 358.390625 L 1022.714844 339.796875 L 1033.476562 321.199219 " fill-opacity="1" fill-rule="nonzero"></path>
  <path fill="#ffffff" d="M 1023.460938 307.351562 L 1005.679688 307.351562 L 996.785156 322.714844 L 1005.679688 338.082031 L 1023.460938 338.082031 L 1032.355469 322.714844 Z M 1003.808594 304.121094 L 1025.332031 304.121094 L 1036.097656 322.714844 L 1025.332031 341.3125 L 1003.808594 341.3125 L 993.046875 322.714844 L 1003.808594 304.121094 " fill-opacity="1" fill-rule="nonzero"></path>
  <g clip-path="url(#790dc7dcb4)">
    <path fill="#ffffff" d="M 964.207031 307.671875 L 946.425781 307.671875 L 937.535156 323.035156 L 946.425781 338.398438 L 964.207031 338.398438 L 973.101562 323.035156 Z M 944.554688 304.4375 L 966.082031 304.4375 L 976.84375 323.035156 L 966.082031 341.628906 L 944.554688 341.628906 L 933.792969 323.035156 L 944.554688 304.4375 " fill-opacity="1" fill-rule="nonzero"></path>
  </g>
  <path fill="#ffffff" d="M 993.867188 324.699219 L 976.085938 324.699219 L 967.191406 340.0625 L 976.085938 355.425781 L 993.867188 355.425781 L 1002.761719 340.0625 Z M 974.214844 321.464844 L 995.738281 321.464844 L 1006.503906 340.0625 L 995.738281 358.65625 L 974.214844 358.65625 L 963.453125 340.0625 L 974.214844 321.464844 " fill-opacity="1" fill-rule="nonzero"></path>
  <path fill="#ffffff" d="M 42.066406 238.296875 L 59.851562 238.296875 L 68.742188 222.933594 L 59.851562 207.570312 L 42.066406 207.570312 L 33.175781 222.933594 Z M 61.722656 241.53125 L 40.195312 241.53125 L 29.433594 222.933594 L 40.195312 204.339844 L 61.722656 204.339844 L 72.484375 222.933594 L 61.722656 241.53125 " fill-opacity="1" fill-rule="nonzero"></path>
  <path fill="#ffffff" d="M 42.511719 204.125 L 60.292969 204.125 L 69.1875 188.761719 L 60.292969 173.398438 L 42.511719 173.398438 L 33.621094 188.761719 Z M 62.164062 207.359375 L 40.640625 207.359375 L 29.878906 188.761719 L 40.640625 170.167969 L 62.164062 170.167969 L 72.929688 188.761719 L 62.164062 207.359375 " fill-opacity="1" fill-rule="nonzero"></path>
  <g clip-path="url(#495f1d93d4)">
    <path fill="#ffffff" d="M 42.148438 170.117188 L 59.933594 170.117188 L 68.824219 154.753906 L 59.933594 139.390625 L 42.148438 139.390625 L 33.257812 154.753906 Z M 61.804688 173.351562 L 40.277344 173.351562 L 29.515625 154.753906 L 40.277344 136.160156 L 61.804688 136.160156 L 72.566406 154.753906 L 61.804688 173.351562 " fill-opacity="1" fill-rule="nonzero"></path>
  </g>
  <path fill="#ffffff" d="M 42.3125 272.105469 L 60.09375 272.105469 L 68.984375 256.742188 L 60.09375 241.378906 L 42.3125 241.378906 L 33.417969 256.742188 Z M 61.964844 275.335938 L 40.441406 275.335938 L 29.675781 256.742188 L 40.441406 238.144531 L 61.964844 238.144531 L 72.726562 256.742188 L 61.964844 275.335938 " fill-opacity="1" fill-rule="nonzero"></path>
  <path fill="#ffffff" d="M 12.683594 220.835938 L 30.464844 220.835938 L 39.359375 205.472656 L 30.464844 190.109375 L 12.683594 190.109375 L 3.792969 205.472656 Z M 32.335938 224.070312 L 10.8125 224.070312 L 0.0507812 205.472656 L 10.8125 186.878906 L 32.335938 186.878906 L 43.101562 205.472656 L 32.335938 224.070312 " fill-opacity="1" fill-rule="nonzero"></path>
  <path fill="#ffffff" d="M 71.707031 255.125 L 89.492188 255.125 L 98.382812 239.761719 L 89.492188 224.398438 L 71.707031 224.398438 L 62.816406 239.761719 Z M 91.363281 258.355469 L 69.835938 258.355469 L 59.074219 239.761719 L 69.835938 221.164062 L 91.363281 221.164062 L 102.125 239.761719 L 91.363281 258.355469 " fill-opacity="1" fill-rule="nonzero"></path>
  <path fill="#ffffff" d="M 71.660156 220.953125 L 89.445312 220.953125 L 98.335938 205.589844 L 89.445312 190.226562 L 71.660156 190.226562 L 62.769531 205.589844 Z M 91.316406 224.183594 L 69.792969 224.183594 L 59.027344 205.589844 L 69.792969 186.992188 L 91.316406 186.992188 L 102.078125 205.589844 L 91.316406 224.183594 " fill-opacity="1" fill-rule="nonzero"></path>
  <path fill="#ffffff" d="M 101.332031 238.03125 L 119.113281 238.03125 L 128.007812 222.667969 L 119.113281 207.304688 L 101.332031 207.304688 L 92.4375 222.667969 Z M 120.984375 241.261719 L 99.460938 241.261719 L 88.695312 222.667969 L 99.460938 204.070312 L 120.984375 204.070312 L 131.75 222.667969 L 120.984375 241.261719 " fill-opacity="1" fill-rule="nonzero"></path>
  <path fill="#ffffff" d="M 72.023438 289.199219 L 89.804688 289.199219 L 98.699219 273.835938 L 89.804688 258.472656 L 72.023438 258.472656 L 63.132812 273.835938 Z M 91.679688 292.429688 L 70.152344 292.429688 L 59.390625 273.835938 L 70.152344 255.238281 L 91.679688 255.238281 L 102.441406 273.835938 L 91.679688 292.429688 " fill-opacity="1" fill-rule="nonzero"></path>
  <g clip-path="url(#1bb5016baf)">
    <path fill="#ffffff" d="M 42.511719 306.175781 L 60.292969 306.175781 L 69.1875 290.8125 L 60.292969 275.449219 L 42.511719 275.449219 L 33.621094 290.8125 Z M 62.164062 309.410156 L 40.640625 309.410156 L 29.878906 290.8125 L 40.640625 272.21875 L 62.164062 272.21875 L 72.929688 290.8125 L 62.164062 309.410156 " fill-opacity="1" fill-rule="nonzero"></path>
  </g>
  <path fill="#ffffff" d="M 101.644531 272.105469 L 119.429688 272.105469 L 128.320312 256.742188 L 119.429688 241.378906 L 101.644531 241.378906 L 92.753906 256.742188 Z M 121.300781 275.335938 L 99.773438 275.335938 L 89.011719 256.742188 L 99.773438 238.144531 L 121.300781 238.144531 L 132.0625 256.742188 L 121.300781 275.335938 " fill-opacity="1" fill-rule="nonzero"></path>
  <path fill="#ffffff" d="M 130.925781 220.683594 L 148.707031 220.683594 L 157.601562 205.320312 L 148.707031 189.957031 L 130.925781 189.957031 L 122.035156 205.320312 Z M 150.578125 223.917969 L 129.054688 223.917969 L 118.292969 205.320312 L 129.054688 186.726562 L 150.578125 186.726562 L 161.34375 205.320312 L 150.578125 223.917969 " fill-opacity="1" fill-rule="nonzero"></path>
  <path fill="#ffffff" d="M 71.863281 186.71875 L 89.644531 186.71875 L 98.535156 171.355469 L 89.644531 155.992188 L 71.863281 155.992188 L 62.96875 171.355469 Z M 91.515625 189.949219 L 69.992188 189.949219 L 59.226562 171.355469 L 69.992188 152.757812 L 91.515625 152.757812 L 102.277344 171.355469 L 91.515625 189.949219 " fill-opacity="1" fill-rule="nonzero"></path>
  <path fill="#ffffff" d="M 101.53125 203.796875 L 119.3125 203.796875 L 128.207031 188.433594 L 119.3125 173.070312 L 101.53125 173.070312 L 92.636719 188.433594 Z M 121.183594 207.027344 L 99.660156 207.027344 L 88.894531 188.433594 L 99.660156 169.835938 L 121.183594 169.835938 L 131.945312 188.433594 L 121.183594 207.027344 " fill-opacity="1" fill-rule="nonzero"></path>
  <g clip-path="url(#b815daf156)">
    <path fill="#ffffff" d="M 160.785156 203.480469 L 178.566406 203.480469 L 187.457031 188.117188 L 178.566406 172.753906 L 160.785156 172.753906 L 151.890625 188.117188 Z M 180.4375 206.710938 L 158.910156 206.710938 L 148.148438 188.117188 L 158.910156 169.519531 L 180.4375 169.519531 L 191.199219 188.117188 L 180.4375 206.710938 " fill-opacity="1" fill-rule="nonzero"></path>
  </g>
  <path fill="#ffffff" d="M 131.125 186.449219 L 148.90625 186.449219 L 157.800781 171.089844 L 148.90625 155.726562 L 131.125 155.726562 L 122.230469 171.089844 Z M 150.777344 189.683594 L 129.253906 189.683594 L 118.488281 171.089844 L 129.253906 152.492188 L 150.777344 152.492188 L 161.539062 171.089844 L 150.777344 189.683594 " fill-opacity="1" fill-rule="nonzero"></path>
  <path fill="#ffffff" d="M 101.78125 102.140625 L 119.5625 102.140625 L 128.457031 86.777344 L 119.5625 71.414062 L 101.78125 71.414062 L 92.886719 86.777344 Z M 121.433594 105.371094 L 99.910156 105.371094 L 89.144531 86.777344 L 99.910156 68.179688 L 121.433594 68.179688 L 132.195312 86.777344 L 121.433594 105.371094 " fill-opacity="1" fill-rule="nonzero"></path>
  <path fill="#ffffff" d="M 102.222656 67.96875 L 120.007812 67.96875 L 128.898438 52.605469 L 120.007812 37.242188 L 102.222656 37.242188 L 93.332031 52.605469 Z M 121.878906 71.199219 L 100.351562 71.199219 L 89.589844 52.605469 L 100.351562 34.007812 L 121.878906 34.007812 L 132.640625 52.605469 L 121.878906 71.199219 " fill-opacity="1" fill-rule="nonzero"></path>
  <path fill="#ffffff" d="M 101.859375 33.960938 L 119.644531 33.960938 L 128.535156 18.597656 L 119.644531 3.234375 L 101.859375 3.234375 L 92.96875 18.597656 Z M 121.515625 37.191406 L 99.988281 37.191406 L 89.226562 18.597656 L 99.988281 0 L 121.515625 0 L 132.277344 18.597656 L 121.515625 37.191406 " fill-opacity="1" fill-rule="nonzero"></path>
  <path fill="#ffffff" d="M 102.023438 135.945312 L 119.804688 135.945312 L 128.699219 120.582031 L 119.804688 105.21875 L 102.023438 105.21875 L 93.132812 120.582031 Z M 121.675781 139.179688 L 100.152344 139.179688 L 89.390625 120.582031 L 100.152344 101.988281 L 121.675781 101.988281 L 132.441406 120.582031 L 121.675781 139.179688 " fill-opacity="1" fill-rule="nonzero"></path>
  <g clip-path="url(#10af9044bb)">
    <path fill="#ffffff" d="M 72.394531 84.679688 L 90.179688 84.679688 L 99.070312 69.316406 L 90.179688 53.953125 L 72.394531 53.953125 L 63.503906 69.316406 Z M 92.050781 87.910156 L 70.523438 87.910156 L 59.761719 69.316406 L 70.523438 50.71875 L 92.050781 50.71875 L 102.8125 69.316406 L 92.050781 87.910156 " fill-opacity="1" fill-rule="nonzero"></path>
  </g>
  <path fill="#ffffff" d="M 131.421875 118.964844 L 149.203125 118.964844 L 158.09375 103.601562 L 149.203125 88.238281 L 131.421875 88.238281 L 122.527344 103.601562 Z M 151.074219 122.199219 L 129.550781 122.199219 L 118.785156 103.601562 L 129.550781 85.007812 L 151.074219 85.007812 L 161.835938 103.601562 L 151.074219 122.199219 " fill-opacity="1" fill-rule="nonzero"></path>
  <path fill="#ffffff" d="M 131.375 84.792969 L 149.15625 84.792969 L 158.050781 69.429688 L 149.15625 54.066406 L 131.375 54.066406 L 122.480469 69.429688 Z M 151.027344 88.027344 L 129.503906 88.027344 L 118.742188 69.429688 L 129.503906 50.835938 L 151.027344 50.835938 L 161.792969 69.429688 L 151.027344 88.027344 " fill-opacity="1" fill-rule="nonzero"></path>
  <path fill="#ffffff" d="M 161.042969 101.871094 L 178.828125 101.871094 L 187.71875 86.507812 L 178.828125 71.144531 L 161.042969 71.144531 L 152.152344 86.507812 Z M 180.699219 105.105469 L 159.171875 105.105469 L 148.410156 86.507812 L 159.171875 67.914062 L 180.699219 67.914062 L 191.460938 86.507812 L 180.699219 105.105469 " fill-opacity="1" fill-rule="nonzero"></path>
  <path fill="#ffffff" d="M 131.734375 153.039062 L 149.519531 153.039062 L 158.410156 137.675781 L 149.519531 122.3125 L 131.734375 122.3125 L 122.84375 137.675781 Z M 151.390625 156.273438 L 129.863281 156.273438 L 119.101562 137.675781 L 129.863281 119.078125 L 151.390625 119.078125 L 162.152344 137.675781 L 151.390625 156.273438 " fill-opacity="1" fill-rule="nonzero"></path>
  <g clip-path="url(#17f5d795a3)">
    <path fill="#ffffff" d="M 102.222656 170.019531 L 120.007812 170.019531 L 128.898438 154.65625 L 120.007812 139.292969 L 102.222656 139.292969 L 93.332031 154.65625 Z M 121.878906 173.25 L 100.351562 173.25 L 89.589844 154.65625 L 100.351562 136.058594 L 121.878906 136.058594 L 132.640625 154.65625 L 121.878906 173.25 " fill-opacity="1" fill-rule="nonzero"></path>
  </g>
  <path fill="#ffffff" d="M 161.359375 135.945312 L 179.140625 135.945312 L 188.035156 120.582031 L 179.140625 105.21875 L 161.359375 105.21875 L 152.464844 120.582031 Z M 181.011719 139.179688 L 159.488281 139.179688 L 148.722656 120.582031 L 159.488281 101.988281 L 181.011719 101.988281 L 191.773438 120.582031 L 181.011719 139.179688 " fill-opacity="1" fill-rule="nonzero"></path>
  <path fill="#ffffff" d="M 190.636719 84.527344 L 208.421875 84.527344 L 217.3125 69.164062 L 208.421875 53.800781 L 190.636719 53.800781 L 181.746094 69.164062 Z M 210.292969 87.757812 L 188.765625 87.757812 L 178.003906 69.164062 L 188.765625 50.566406 L 210.292969 50.566406 L 221.054688 69.164062 L 210.292969 87.757812 " fill-opacity="1" fill-rule="nonzero"></path>
  <path fill="#ffffff" d="M 131.574219 50.558594 L 149.355469 50.558594 L 158.25 35.195312 L 149.355469 19.832031 L 131.574219 19.832031 L 122.679688 35.195312 Z M 151.226562 53.792969 L 129.703125 53.792969 L 118.941406 35.195312 L 129.703125 16.601562 L 151.226562 16.601562 L 161.992188 35.195312 L 151.226562 53.792969 " fill-opacity="1" fill-rule="nonzero"></path>
  <path fill="#ffffff" d="M 161.242188 67.636719 L 179.027344 67.636719 L 187.917969 52.273438 L 179.027344 36.910156 L 161.242188 36.910156 L 152.351562 52.273438 Z M 180.894531 70.871094 L 159.371094 70.871094 L 148.609375 52.273438 L 159.371094 33.679688 L 180.894531 33.679688 L 191.660156 52.273438 L 180.894531 70.871094 " fill-opacity="1" fill-rule="nonzero"></path>
  <g clip-path="url(#b12b037be1)">
    <path fill="#ffffff" d="M 220.496094 67.320312 L 238.277344 67.320312 L 247.171875 51.957031 L 238.277344 36.59375 L 220.496094 36.59375 L 211.601562 51.957031 Z M 240.148438 70.554688 L 218.625 70.554688 L 207.859375 51.957031 L 218.625 33.363281 L 240.148438 33.363281 L 250.910156 51.957031 L 240.148438 70.554688 " fill-opacity="1" fill-rule="nonzero"></path>
  </g>
  <path fill="#ffffff" d="M 190.835938 50.292969 L 208.617188 50.292969 L 217.511719 34.929688 L 208.617188 19.566406 L 190.835938 19.566406 L 181.945312 34.929688 Z M 210.492188 53.523438 L 188.964844 53.523438 L 178.203125 34.929688 L 188.964844 16.332031 L 210.492188 16.332031 L 221.253906 34.929688 L 210.492188 53.523438 " fill-opacity="1" fill-rule="nonzero"></path>
</svg>
