<svg width="24" height="24" viewBox="0 0 60 60" xmlns="http://www.w3.org/2000/svg">
  <path fill-rule="evenodd" clip-rule="evenodd" d="M47.5779 24.8315L35.4465 0L29.1912 16.9829L35.6985 24.4104L47.5779 24.8315Z" fill="#187277"/>
  <path fill-rule="evenodd" clip-rule="evenodd" d="M35.4465 0L35.636 0.379107V23.5046L29.0903 16.965L35.4465 0Z" fill="#50AFBE"/>
  <path fill-rule="evenodd" clip-rule="evenodd" d="M35.4465 0L35.6361 0.379107V9.09856H32.0345L35.4465 0Z" fill="#89D0D3"/>
  <path fill-rule="evenodd" clip-rule="evenodd" d="M8.71947 24.8315L20.8509 0L27.1061 16.9829L20.5988 24.4104L8.71947 24.8315Z" fill="#187277"/>
  <path fill-rule="evenodd" clip-rule="evenodd" d="M20.8509 0L20.6613 0.379107V23.5046L27.207 16.965L20.8509 0Z" fill="#50AFBE"/>
  <path fill-rule="evenodd" clip-rule="evenodd" d="M20.8509 0L20.6613 0.379107V9.09856H24.2628L20.8509 0Z" fill="#89D0D3"/>
  <mask id="mask0" mask-type="alpha" maskUnits="userSpaceOnUse" x="0" y="16" width="57" height="43">
    <path fill-rule="evenodd" clip-rule="evenodd" d="M0 16.8702H56.4237V59H0V16.8702Z" fill="white"/>
  </mask>
  <g mask="url(#mask0)">
    <path fill-rule="evenodd" clip-rule="evenodd" d="M35.419 16.8702L47.3223 24.3357L55.9182 40.2704L49.7458 52.529L36.6324 58.9511H19.6649L6.55036 52.529L0.379089 40.2704L8.97495 24.3357L20.8772 16.8702H35.419Z" fill="#50AFBE"/>
  </g>
  <mask id="mask1" mask-type="alpha" maskUnits="userSpaceOnUse" x="2" y="36" width="52" height="23">
    <path fill-rule="evenodd" clip-rule="evenodd" d="M2.98376 36.8843H53.375V58.9237H2.98376V36.8843Z" fill="white"/>
  </mask>
  <g mask="url(#mask1)">
    <path fill-rule="evenodd" clip-rule="evenodd" d="M24.0028 36.8843L2.93811 45.3032L6.54751 52.4692L19.6832 58.9246H36.6755L49.8101 52.4692L53.375 45.3655L32.356 36.8843H24.0028Z" fill="#89D0D3"/>
  </g>
  <path fill-rule="evenodd" clip-rule="evenodd" d="M35.2569 34.783C35.2569 35.883 35.8508 36.7733 36.5843 36.7733C37.3156 36.7733 37.9106 35.883 37.9106 34.783C37.9106 33.6845 37.3156 32.7927 36.5843 32.7927C35.8508 32.7927 35.2569 33.6845 35.2569 34.783" fill="#187277"/>
  <path fill-rule="evenodd" clip-rule="evenodd" d="M22.1777 34.783C22.1777 35.883 21.585 36.7733 20.8514 36.7733C20.119 36.7733 19.524 35.883 19.524 34.783C19.524 33.6845 20.119 32.7927 20.8514 32.7927C21.585 32.7927 22.1777 33.6845 22.1777 34.783" fill="#187277"/>
  <path fill-rule="evenodd" clip-rule="evenodd" d="M32.2883 49.8526C32.1789 49.8526 32.0695 49.8207 31.9748 49.7558L27.718 46.8442C27.471 46.6748 27.4112 46.3415 27.5838 46.0996C27.7575 45.8587 28.0993 45.8004 28.3474 45.9698L32.2669 48.6514L35.6957 45.9885C35.9303 45.8048 36.2755 45.8422 36.4638 46.0732C36.6533 46.3041 36.6138 46.6407 36.377 46.8244L32.6301 49.7371C32.5308 49.813 32.409 49.8526 32.2883 49.8526" fill="#187277"/>
  <path fill-rule="evenodd" clip-rule="evenodd" d="M24.009 49.663C23.8883 49.663 23.7665 49.619 23.6672 49.5347L19.9199 46.2999C19.683 46.0959 19.6447 45.7221 19.8331 45.4656C20.0214 45.2102 20.3666 45.1687 20.6012 45.3715L24.0304 48.329L27.7168 45.5279V41.1582C27.7168 40.8308 27.9616 40.5645 28.2639 40.5645C28.5673 40.5645 28.8121 40.8308 28.8121 41.1582V45.8357C28.8121 46.0299 28.7264 46.2095 28.5797 46.3219L24.3226 49.5555C24.2278 49.6276 24.1184 49.663 24.009 49.663" fill="#187277"/>
  <path fill-rule="evenodd" clip-rule="evenodd" d="M31.2763 39.2375L28.0551 43.2182L24.8315 39.2375H31.2763Z" fill="#187277"/>
</svg>
